HIERARCHY
ROOT root
{
	OFFSET 0.000000 0.000000 0.000000
	CHANNELS 6 Xposition Yposition Zposition Zrotation Yrotation Xrotation
	JOINT lhip
	{
		OFFSET 0.058581 -0.082280 -0.017664
		CHANNELS 3 Zrotation Yrotation Xrotation
		JOINT lknee
		{
			OFFSET 0.043451 -0.386469 0.008037
			CHANNELS 3 Zrotation Yrotation Xrotation
			JOINT lankle
			{
				OFFSET -0.014790 -0.426874 -0.037428
				CHANNELS 3 Zrotation Yrotation Xrotation
				JOINT ltoe
				{
					OFFSET 0.041054 -0.060286 0.122042
					CHANNELS 3 Zrotation Yrotation Xrotation
					End Site
					{
						OFFSET 0.000000 0.000000 0.000000
					}
				}
			}
		}
	}
	JOINT rhip
	{
		OFFSET -0.060310 -0.090513 -0.013543
		CHANNELS 3 Zrotation Yrotation Xrotation
		JOINT rknee
		{
			OFFSET -0.043257 -0.383688 -0.004843
			CHANNELS 3 Zrotation Yrotation Xrotation
			JOINT rankle
			{
				OFFSET 0.019056 -0.420046 -0.034562
				CHANNELS 3 Zrotation Yrotation Xrotation
				JOINT rtoe
				{
					OFFSET -0.034840 -0.062106 0.130323
					CHANNELS 3 Zrotation Yrotation Xrotation
					End Site
					{
						OFFSET 0.000000 0.000000 0.000000
					}
				}
			}
		}
	}
	JOINT lowerback
	{
		OFFSET 0.004439 0.124404 -0.038385
		CHANNELS 3 Zrotation Yrotation Xrotation
		JOINT upperback
		{
			OFFSET 0.004488 0.137956 0.026820
			CHANNELS 3 Zrotation Yrotation Xrotation
			JOINT chest
			{
				OFFSET -0.002265 0.056032 0.002855
				CHANNELS 3 Zrotation Yrotation Xrotation
				JOINT lowerneck
				{
					OFFSET -0.013390 0.211636 -0.033468
					CHANNELS 3 Zrotation Yrotation Xrotation
					JOINT upperneck
					{
						OFFSET 0.010113 0.088937 0.050410
						CHANNELS 3 Zrotation Yrotation Xrotation
						End Site
						{
							OFFSET 0.000000 0.000000 0.000000
						}
					}
				}
				JOINT lclavicle
				{
					OFFSET 0.071702 0.114000 -0.018898
					CHANNELS 3 Zrotation Yrotation Xrotation
					JOINT lshoulder
					{
						OFFSET 0.122921 0.045205 -0.019046
						CHANNELS 3 Zrotation Yrotation Xrotation
						JOINT lelbow
						{
							OFFSET 0.255332 -0.015649 -0.022946
							CHANNELS 3 Zrotation Yrotation Xrotation
							JOINT lwrist
							{
								OFFSET 0.265709 0.012698 -0.007375
								CHANNELS 3 Zrotation Yrotation Xrotation
								End Site
								{
									OFFSET 0.000000 0.000000 0.000000
								}
							}
						}
					}
				}
				JOINT rclavicle
				{
					OFFSET -0.082954 0.112472 -0.023707
					CHANNELS 3 Zrotation Yrotation Xrotation
					JOINT rshoulder
					{
						OFFSET -0.113228 0.046853 -0.008472
						CHANNELS 3 Zrotation Yrotation Xrotation
						JOINT relbow
						{
							OFFSET -0.260127 -0.014369 -0.031269
							CHANNELS 3 Zrotation Yrotation Xrotation
							JOINT rwrist
							{
								OFFSET -0.269108 0.006794 -0.006027
								CHANNELS 3 Zrotation Yrotation Xrotation
								End Site
								{
									OFFSET 0.000000 0.000000 0.000000
								}
							}
						}
					}
				}
			}
		}
	}
}
MOTION
Frames: 11
Frame Time: 0.033333
-0.129246 -1.802888 0.971480 172.207304 0.389177 87.007414 5.742223 -1.404048 -11.474289 -5.186709 -8.635614 13.843062 -4.181221 4.837184 -10.354088 0.000000 -0.000000 0.000000 2.914208 -0.719108 3.807036 -0.395254 5.650723 12.392324 -1.962618 -4.937308 -25.553895 0.000000 -0.000000 0.000000 0.219364 1.983590 22.657090 0.205278 -2.043445 4.752033 1.536887 -1.958604 2.470854 -2.238568 5.295141 -9.108949 1.927676 2.449806 -6.858606 -26.729982 4.365700 6.265687 -47.095416 10.753785 13.377289 -7.106402 -53.109228 22.114978 2.032959 -13.675302 -19.629458 19.711816 0.968948 6.086832 45.514812 -8.104026 14.940970 8.085531 50.449759 22.702490 3.152971 9.963392 -11.856140 
-0.128172 -1.802846 0.971394 172.311789 0.362403 86.889953 5.775950 -1.560984 -11.327465 -5.160528 -8.796285 13.758797 -4.324077 4.926177 -10.295449 0.000000 -0.000000 0.000000 2.986297 -0.787170 3.690742 -0.407876 5.784881 12.877332 -2.064165 -4.977326 -25.616023 0.000000 -0.000000 0.000000 0.230579 2.025474 22.782009 0.242332 -2.104537 4.621792 1.565018 -1.931154 2.518312 -2.244766 5.188619 -8.862070 1.921663 2.395124 -6.885670 -26.717900 4.370752 6.257659 -46.814759 10.800835 13.444175 -7.491261 -53.293776 21.872519 1.879898 -13.660699 -19.479790 19.695252 0.951099 5.979541 45.350676 -8.166533 14.857217 8.205667 50.422094 22.217013 3.399987 9.927810 -11.324940 
-0.127084 -1.802706 0.971488 172.308708 0.331222 86.784514 5.794424 -1.572254 -11.121127 -5.157588 -9.059539 13.646654 -4.316474 5.055903 -10.287688 0.000000 -0.000000 0.000000 3.067081 -0.746720 3.638939 -0.386071 6.049110 13.247925 -2.087226 -5.181245 -25.630182 0.000000 -0.000000 0.000000 0.193532 2.032586 22.805460 0.239821 -2.064807 4.583401 1.566386 -1.885170 2.509592 -2.214308 5.119996 -8.673652 1.973434 2.379907 -6.908692 -26.594854 4.382131 6.384850 -46.604426 10.955203 13.494236 -7.874456 -53.508786 22.123727 1.993975 -13.629790 -19.829214 19.657076 0.979775 5.975086 45.352784 -8.203498 14.858206 8.143666 50.389469 22.167208 3.258639 9.969413 -11.473806 
-0.126018 -1.802414 0.971517 172.352195 0.289124 86.685750 5.797445 -1.635700 -10.912251 -5.137564 -9.312148 13.542614 -4.318759 5.139642 -10.328999 0.000000 -0.000000 0.000000 3.117745 -0.721822 3.812981 -0.409328 6.111121 13.214571 -2.134546 -5.273507 -25.611470 0.000000 -0.000000 0.000000 0.193039 2.052579 22.718089 0.249889 -2.062919 4.636673 1.556278 -1.851051 2.478367 -2.186572 5.073030 -8.516694 1.971152 2.334416 -6.970674 -26.464945 4.349924 6.549811 -46.407658 11.126956 13.508758 -8.153967 -53.481692 22.393874 2.024913 -13.612300 -19.876858 19.594758 0.972351 6.003358 45.320824 -8.273448 14.812235 8.173173 50.514844 22.137242 2.978406 9.976414 -11.659368 
-0.125487 -1.802190 0.971497 172.376623 0.265215 86.628649 5.793358 -1.664724 -10.809061 -5.133013 -9.464224 13.521140 -4.304578 5.181668 -10.375652 0.000000 -0.000000 0.000000 3.126534 -0.735497 3.850291 -0.389256 6.197818 13.321366 -2.179617 -5.316599 -25.616180 0.000000 -0.000000 0.000000 0.220695 2.060740 22.677330 0.246830 -2.073845 4.652550 1.538987 -1.835685 2.444106 -2.186996 5.040680 -8.403839 1.960248 2.348107 -6.992620 -26.424871 4.296531 6.627221 -46.341049 11.234586 13.481047 -8.104103 -53.317633 22.407573 2.062232 -13.558110 -19.777651 19.572247 0.999445 6.053665 45.277440 -8.328720 14.772687 8.268385 50.598630 22.150519 2.837795 9.968859 -11.764778 
-0.124860 -1.801922 0.971386 172.380648 0.223561 86.535436 5.776476 -1.697660 -10.673596 -5.141990 -9.673042 13.536193 -4.270807 5.263721 -10.463307 0.000000 -0.000000 0.000000 3.129406 -0.728129 3.841297 -0.350473 6.310598 13.608228 -2.210025 -5.389344 -25.667858 0.000000 -0.000000 0.000000 0.245661 2.054395 22.687231 0.222847 -2.073593 4.612081 1.518777 -1.799036 2.427673 -2.197774 4.999001 -8.251448 1.964890 2.391964 -7.009027 -26.377757 4.221964 6.681292 -46.337200 11.311229 13.397487 -7.830227 -52.998313 22.276511 2.124016 -13.505928 -19.595483 19.516759 1.068083 6.101758 45.287358 -8.349374 14.728288 8.360408 50.596153 22.280853 2.734314 10.029387 -11.912138 
-0.124321 -1.801808 0.971119 172.383911 0.160285 86.441104 5.731030 -1.761458 -10.587889 -5.160749 -9.871246 13.630425 -4.203877 5.358086 -10.602327 0.000000 -0.000000 0.000000 3.127510 -0.668274 3.848651 -0.376795 6.234098 13.851241 -2.220092 -5.397954 -25.778640 0.000000 -0.000000 0.000000 0.217306 2.042587 22.712624 0.204433 -2.053728 4.552791 1.522223 -1.756018 2.461300 -2.184666 4.970264 -8.121958 1.989992 2.406706 -6.979018 -26.321622 4.149820 6.708026 -46.412625 11.278253 13.296632 -7.432224 -52.742308 21.950839 2.300135 -13.443941 -19.483122 19.476291 1.139358 6.141276 45.301867 -8.326711 14.689834 8.360202 50.581195 22.371900 2.611286 10.076010 -11.987774 
-0.123891 -1.801852 0.970801 172.402923 0.102695 86.338431 5.679732 -1.864896 -10.523465 -5.173249 -10.080210 13.760116 -4.103639 5.470665 -10.748529 0.000000 -0.000000 0.000000 3.139626 -0.585542 3.728402 -0.372360 6.265513 14.331889 -2.245154 -5.486322 -25.924576 0.000000 -0.000000 0.000000 0.187037 2.038655 22.742570 0.209923 -2.018161 4.531018 1.525128 -1.732035 2.499863 -2.152727 4.932877 -8.008691 2.015101 2.401787 -6.867903 -26.246705 4.038099 6.753254 -46.479384 11.209392 13.249030 -7.148577 -52.701048 21.630085 2.681393 -13.354562 -19.522933 19.449507 1.225776 6.166178 45.288138 -8.336233 14.679730 8.305383 50.625617 22.300847 2.357173 10.065591 -11.992392 
-0.123550 -1.801916 0.970547 172.452090 0.035282 86.233431 5.604180 -1.988282 -10.462663 -5.180275 -10.305421 13.890195 -3.997299 5.586084 -10.889807 0.000000 -0.000000 0.000000 3.162903 -0.524637 3.575915 -0.373951 6.394023 14.890596 -2.230972 -5.667629 -26.048061 0.000000 -0.000000 0.000000 0.164867 2.032242 22.783101 0.226150 -1.997772 4.505450 1.509447 -1.715656 2.544958 -2.132189 4.907649 -7.914334 2.027669 2.388087 -6.745616 -26.172937 3.932659 6.805895 -46.377962 11.140982 13.282712 -7.252644 -52.902734 21.647925 3.037073 -13.333386 -19.599115 19.449580 1.260725 6.141972 45.211305 -8.381572 14.701672 8.292042 50.722968 22.203711 2.080671 10.064033 -11.996788 
-0.123254 -1.801959 0.970316 172.560881 -0.070070 86.146670 5.494130 -2.177657 -10.415810 -5.196826 -10.529621 14.000568 -3.875359 5.691696 -11.029267 0.000000 -0.000000 0.000000 3.157237 -0.459560 3.527994 -0.430050 6.402320 15.236654 -2.204115 -5.824365 -26.131566 0.000000 -0.000000 0.000000 0.136329 2.007002 22.770321 0.246435 -2.021328 4.459163 1.474130 -1.690255 2.619475 -2.104888 4.903602 -7.782533 2.038686 2.344232 -6.586439 -26.042759 3.866289 6.878970 -46.121351 11.027437 13.377453 -7.702477 -53.317154 21.904436 3.306798 -13.409221 -19.733091 19.457417 1.233640 6.116230 45.058245 -8.403669 14.734160 8.327335 50.833524 22.084303 1.803850 10.087978 -12.004132 
-0.123113 -1.801943 0.970341 172.648054 -0.129112 86.092177 5.441937 -2.274632 -10.345873 -5.220932 -10.696423 13.990421 -3.809391 5.735113 -11.075244 0.000000 -0.000000 0.000000 3.120638 -0.480802 3.586121 -0.427360 6.477528 15.295253 -2.201274 -5.889615 -26.083611 0.000000 -0.000000 0.000000 0.167687 1.989303 22.717490 0.263531 -2.061436 4.469156 1.437798 -1.671926 2.633558 -2.091749 4.877274 -7.652641 2.047180 2.305638 -6.411310 -25.955918 3.813521 6.934892 -45.939354 10.935050 13.417060 -7.936383 -53.550350 21.981873 3.444665 -13.468654 -19.858003 19.459865 1.208145 6.127173 44.944184 -8.425463 14.708354 8.225233 50.836538 21.868760 1.646254 10.102935 -11.889123 
